<?xml version="1.0" encoding="utf-8"?>
<!-- Generator: Adobe Illustrator 22.1.0, SVG Export Plug-In . SVG Version: 6.00 Build 0)  -->
<svg version="1.1" id="Layer_1" xmlns="http://www.w3.org/2000/svg" xmlns:xlink="http://www.w3.org/1999/xlink" x="0px" y="0px"
	 viewBox="0 0 100 28.2" style="enable-background:new 0 0 100 28.2;" xml:space="preserve">
<style type="text/css">
	.st0{fill:#FF7BAC;}
</style>
<path class="st0" d="M38,0L19,28.1h2.2L40.2,0H38z"/>
<path d="M22,5.6h-7.3c-0.3,0-0.5,0.1-0.6,0.3l-1.6,2.3h9c0.4,0,0.7,0.2,0.7,0.6c0,0.5-0.5,1-1,1h-4c-0.2,0-0.5,0.1-0.6,0.3L15,12.4
	h5.8c2.2,0,4.6-2,4.5-4.1C25.1,6.8,23.6,5.6,22,5.6 M10,8.3H0L1.6,6C1.7,5.8,2,5.6,2.2,5.6h10L10.7,8C10.5,8.2,10.3,8.3,10,8.3"/>
<path d="M4.2,16l0.6-6.1h3l-0.7,6.2l3.9-5.8c0.2-0.2,0.4-0.3,0.6-0.3h2.9L10,16.6c-0.2,0.2-0.4,0.3-0.6,0.3H5
	c-0.4,0-0.8-0.3-0.8-0.7C4.2,16.1,4.2,16.1,4.2,16 M21.4,16.9H12l1.6-2.3c0.2-0.2,0.4-0.3,0.6-0.3h9.4L22,16.6
	C21.9,16.8,21.7,16.9,21.4,16.9 M45.8,18.6c0-3.9,3.2-7.6,7.7-7.6c3.7,0,6.2,2.5,6.2,5.8c0,3.9-3.2,7.6-7.7,7.6
	C48.3,24.5,45.8,21.9,45.8,18.6 M56,17.1c0-1.6-1-2.9-2.8-2.9c-2.3,0-3.7,2.2-3.7,4.1c0,1.6,1,2.9,2.8,2.9C54.6,21.2,56,19,56,17.1
	 M41.7,11.8L39.2,21h6.2l-0.7,2.6c-0.1,0.3-0.3,0.5-0.6,0.5h-8.7c-0.3,0-0.5-0.2-0.4-0.5l3.3-12.4h3.1
	C41.6,11.3,41.7,11.5,41.7,11.8 M89.5,11.3c0.6,0,1.2,0.5,1.4,1.1l1,3.8l3.2-4c0.4-0.5,1.2-0.9,1.8-0.9h3.2l-7.2,8.3l-1.2,4.6h-3.1
	c-0.3,0-0.5-0.2-0.4-0.5l1.2-4.5l-2.6-7.9C86.7,11.3,89.5,11.3,89.5,11.3z M62.8,11.3h4.9c2.2,0,3.6,0.5,4.4,1.3
	c0.7,0.7,1,1.6,1,2.6c0,2.2-1.2,3.9-3.9,4.6l2,4.4h-3.9l-1.7-3.9H64l-1,3.9h-3.1c-0.2,0-0.4-0.2-0.4-0.4v-0.1L62.8,11.3L62.8,11.3z
	 M66.8,17.5c1.6,0,2.7-0.7,2.7-1.8c0-0.4-0.1-0.6-0.3-0.9c-0.3-0.3-0.8-0.4-1.6-0.4h-1.9l-0.8,3.1H66.8L66.8,17.5z M76,11.3h4.9
	c2.2,0,3.6,0.5,4.4,1.3c0.7,0.7,1,1.6,1,2.6c0,2.2-1.2,3.9-3.9,4.6l2,4.4h-3.9l-1.7-3.9h-1.6l-1.1,3.9H73c-0.2,0-0.4-0.2-0.4-0.4
	v-0.1L76,11.3L76,11.3z M80,17.5c1.6,0,2.7-0.7,2.7-1.8c0-0.4-0.1-0.6-0.3-0.9c-0.3-0.3-0.8-0.4-1.6-0.4h-1.9l-0.8,3.1H80L80,17.5z"
	/>
</svg>
